<?xml version="1.0" standalone="no"?><!DOCTYPE svg PUBLIC "-//W3C//DTD SVG 1.1//EN" "http://www.w3.org/Graphics/SVG/1.1/DTD/svg11.dtd"><svg t="1717078062217" class="icon" viewBox="0 0 1024 1024" version="1.1" xmlns="http://www.w3.org/2000/svg" p-id="26856" xmlns:xlink="http://www.w3.org/1999/xlink" width="30" height="30"><path d="M512 85.333333C277.333333 85.333333 85.333333 277.333333 85.333333 512s192 426.666667 426.666667 426.666667 426.666667-192 426.666667-426.666667S746.666667 85.333333 512 85.333333zM226.133333 768c59.733333-85.333333 123.733333-170.666667 183.466667-256 12.8 42.666667 42.666667 81.066667 81.066667 98.133333L226.133333 768z m281.6-217.6c-21.333333 0-34.133333-17.066667-34.133333-34.133333 0-21.333333 17.066667-34.133333 34.133333-34.133334 21.333333 0 34.133333 17.066667 34.133334 34.133334 0 21.333333-17.066667 34.133333-34.133334 34.133333z m93.866667-34.133333c-12.8-42.666667-46.933333-76.8-85.333333-93.866667l268.8-162.133333-183.466667 256z" fill="#1afa29" p-id="26857"></path></svg>