<?xml version="1.0" standalone="no"?><!DOCTYPE svg PUBLIC "-//W3C//DTD SVG 1.1//EN" "http://www.w3.org/Graphics/SVG/1.1/DTD/svg11.dtd"><svg t="1717072221449" class="icon" viewBox="0 0 1024 1024" version="1.1" xmlns="http://www.w3.org/2000/svg" p-id="17286" xmlns:xlink="http://www.w3.org/1999/xlink" width="30" height="30"><path d="M372.90833 573.517773c-169.341448-111.108579-166.972428-309.963004-68.768101-421.613951 102.348833-116.358287 279.887193-127.374487 393.027092-22.006816 67.9699 63.303493 98.09176 142.622176 87.633278 234.845111-10.299865 90.780033-58.498936 159.3537-130.823125 205.234917 48.142787 30.295828 99.120212 56.329466 142.995693 91.271234 86.031759 68.517384 134.614581 160.776136 152.221056 269.300794 2.865338 17.662759-2.890921 31.80013-20.686714 35.397152-22.656633 4.58454-29.272493-12.377235-32.470414-30.341878-16.219857-91.127967-57.572818-168.686514-126.320452-230.746655-188.989477-170.6155-468.52362-125.859951-592.935552 96.771658-22.820367 40.836176-34.404517 88.175646-49.150772 133.176795-5.725558 17.473442-9.987748 35.136201-32.086664 31.150312-21.126748-3.806806-23.572518-20.502513-20.15458-39.848658 28.924559-163.748923 123.475581-274.468635 273.803468-340.422565 6.994494-3.070004 14.203887-5.648808 21.275131-8.549963C371.035627 576.899895 371.311927 575.93796 372.90833 573.517773zM509.948214 553.706011c125.547834 0.450267 230.900155-100.629631 230.741538-221.383141-0.158617-121.091211-107.787858-228.909769-228.781852-229.180952C391.205556 102.865617 284.405217 209.067306 282.128297 331.632119 279.943477 449.274691 386.621016 553.26086 509.948214 553.706011z" p-id="17287" fill="#ffffff"></path></svg>