<?xml version="1.0" standalone="no"?><!DOCTYPE svg PUBLIC "-//W3C//DTD SVG 1.1//EN" "http://www.w3.org/Graphics/SVG/1.1/DTD/svg11.dtd"><svg t="1717069771924" class="icon" viewBox="0 0 1024 1024" version="1.1" xmlns="http://www.w3.org/2000/svg" p-id="12731" xmlns:xlink="http://www.w3.org/1999/xlink" width="30" height="30"><path d="M277.33504 511.83104c0 24.576 19.968 44.544 44.544 44.544s44.544-19.968 44.544-44.544c0-24.576-19.968-44.544-44.544-44.544-24.576 0-44.544 19.968-44.544 44.544zM467.28704 511.83104c0 24.576 19.968 44.544 44.544 44.544 24.576 0 44.544-19.968 44.544-44.544 0-24.576-19.968-44.544-44.544-44.544-24.576 0-44.544 19.968-44.544 44.544zM657.75104 511.83104c0 24.576 19.968 44.544 44.544 44.544 24.576 0 44.544-19.968 44.544-44.544 0-24.576-19.968-44.544-44.544-44.544-24.576 0-44.544 19.968-44.544 44.544z" p-id="12732" fill="#ffffff"></path><path d="M511.83104 86.87104c-235.008 0-424.96 190.464-424.96 424.96v382.464c0 23.552 18.944 42.496 42.496 42.496h382.464c235.008 0 424.96-190.464 424.96-424.96s-189.952-424.96-424.96-424.96z m0 765.44h-339.968v-339.968c0-187.904 152.064-339.968 339.968-339.968s339.968 152.064 339.968 339.968c0.512 187.392-152.064 339.968-339.968 339.968z" p-id="12733" fill="#ffffff"></path></svg>