<?xml version="1.0" standalone="no"?><!DOCTYPE svg PUBLIC "-//W3C//DTD SVG 1.1//EN" "http://www.w3.org/Graphics/SVG/1.1/DTD/svg11.dtd"><svg t="1717078136835" class="icon" viewBox="0 0 1024 1024" version="1.1" xmlns="http://www.w3.org/2000/svg" p-id="29391" xmlns:xlink="http://www.w3.org/1999/xlink" width="30" height="30"><path d="M470.386967 2.327273C226.023331 20.945455 25.877876 218.763636 2.605149 463.127273c-11.636364 116.363636 16.290909 225.745455 72.145455 314.181818 9.309091 13.963636 9.309091 32.581818 0 46.545454L9.586967 933.236364c-11.636364 18.618182-11.636364 39.563636 0 58.181818S37.51424 1024 58.459695 1024h442.181818c279.272727 0 516.654545-218.763636 523.636363-495.709091C1033.586967 223.418182 777.586967-23.272727 470.386967 2.327273z" fill="#1afa29" p-id="29392"></path><path d="M349.368785 442.181818c39.563636 0 69.818182 30.254545 69.818182 69.818182s-30.254545 69.818182-69.818182 69.818182-69.818182-30.254545-69.818181-69.818182 30.254545-69.818182 69.818181-69.818182zM675.186967 442.181818c39.563636 0 69.818182 30.254545 69.818182 69.818182s-30.254545 69.818182-69.818182 69.818182-69.818182-30.254545-69.818182-69.818182 30.254545-69.818182 69.818182-69.818182z" fill="#1afa29" p-id="29393"></path></svg>