<?xml version="1.0" standalone="no"?><!DOCTYPE svg PUBLIC "-//W3C//DTD SVG 1.1//EN" "http://www.w3.org/Graphics/SVG/1.1/DTD/svg11.dtd"><svg t="1717069909634" class="icon" viewBox="0 0 1024 1024" version="1.1" xmlns="http://www.w3.org/2000/svg" p-id="14967" xmlns:xlink="http://www.w3.org/1999/xlink" width="30" height="30"><path d="M754.809 534.503c-21.389 0-38.805-16.997-38.805-37.908s17.416-37.908 38.805-37.908h162.477c21.389 0 38.805 16.997 38.805 37.908s-17.416 37.908-38.805 37.908H754.809zM789.89 383.159c-18.085 0-32.79-16.996-32.79-37.888s14.705-37.888 32.79-37.888h133.411c18.085 0 32.789 16.996 32.789 37.888s-14.704 37.888-32.789 37.888H789.89zM759.316 231.854c-21.39 0-38.807-16.997-38.807-37.907 0-20.912 17.417-37.908 38.807-37.908h157.969c21.389 0 38.805 16.996 38.805 37.908 0 20.911-17.416 37.907-38.805 37.907H759.316z" fill="#ffffff" p-id="14968"></path><path d="M805.511 925.627H69v-39.11c0-203.058 165.188-368.246 368.247-368.246 203.058 0 368.265 165.188 368.265 368.246v39.11z m-655.674-78.221h574.836C705.5 705.917 583.91 596.491 437.246 596.491c-146.664 0-268.255 109.426-287.409 250.915z" fill="#ffffff" p-id="14969"></path><path d="M431.956 579.839c-132.723 0-240.697-107.975-240.697-240.698 0-132.724 107.974-240.698 240.697-240.698 132.724 0 240.698 107.974 240.698 240.698-0.001 132.723-107.974 240.698-240.698 240.698z m0-403.175c-89.583 0-162.476 72.893-162.476 162.477 0 89.583 72.893 162.477 162.476 162.477s162.477-72.893 162.477-162.477-72.894-162.477-162.477-162.477z" fill="#ffffff" p-id="14970"></path></svg>