<?xml version="1.0" standalone="no"?><!DOCTYPE svg PUBLIC "-//W3C//DTD SVG 1.1//EN" "http://www.w3.org/Graphics/SVG/1.1/DTD/svg11.dtd"><svg t="1717078167559" class="icon" viewBox="0 0 1109 1024" version="1.1" xmlns="http://www.w3.org/2000/svg" p-id="30490" xmlns:xlink="http://www.w3.org/1999/xlink" width="32.490234375" height="30"><path d="M1085.061142 227.448134h-199.971751a25.940436 25.940436 0 0 1-20.564622-8.533038 17.322068 17.322068 0 0 1-3.455881-14.719491 23.593851 23.593851 0 0 1 24.020503-23.209864h199.929085a23.209864 23.209864 0 1 1 0 46.377063v0.08533z m0 175.268605h-167.972858a23.167199 23.167199 0 1 1 0-46.377062h167.972858a25.215128 25.215128 0 0 1 23.935172 23.209864 23.593851 23.593851 0 0 1-23.935172 23.167198z m0 180.473759h-117.329276a23.252529 23.252529 0 1 1 0-46.419728h117.329276a23.209864 23.209864 0 1 1 1.962598 46.419728h-1.962598zM919.733526 1023.964588H119.974518A117.969254 117.969254 0 0 1 0 915.680333c0-75.94404 64.68043-109.606876 133.115396-145.317641 10.282311-5.375814 21.332596-11.09295 32.169555-17.066077 19.199336-9.812994 39.166645-19.199336 56.744704-27.476383 72.530825-34.132153 135.205991-63.69913 135.205991-106.620313a190.073427 190.073427 0 0 0-40.659928-93.095447 404.466012 404.466012 0 0 1-79.271925-234.231899 349.21459 349.21459 0 0 1 48.467657-168.783496 258.551058 258.551058 0 0 1 236.749146-122.449099 258.764384 258.764384 0 0 1 237.60245 121.467799 347.294656 347.294656 0 0 1 47.657018 169.807461 400.924801 400.924801 0 0 1-79.39992 235.127868 186.148229 186.148229 0 0 0-40.574597 92.242144c0 42.878517 62.632501 72.530825 135.12066 106.662978 17.663389 8.191717 37.545368 17.578059 56.830035 27.433718l20.2233 10.282311h0.255992c72.957477 36.948056 141.904426 71.848182 139.429844 152.016076A118.011919 118.011919 0 0 1 919.733526 1023.964588z" fill="#1afa29" p-id="30491"></path></svg>